# xmcd
#
# Track frame offsets: 
#        150
#        15375
#        42300
#        55926
#        67113
#        79257
#        101908
#        117688
#        132601
#        149908
#        163395
#        197977
#        216420
#        240576
#        260069
#        277727
#        303669
#        312601
#        331128
#
# Disc length: 4708 seconds
#
# Revision: 2
# Processed by: cddbd v1.5.2PL0 Copyright (c) Steve Scherf et al.
# Submitted via: ExactAudioCopy v0.95a5
#
DISCID=3c126213
DTITLE=Various Artist - Antologia polskiego bluesa .2 - (2) swie¿a krew
DYEAR=2009
DGENRE=Blues
TTITLE0=Blues Doctors - Ja to nie ty
TTITLE1=Blues Flowers i Magda Piskorczyk - W pamiêtniku Ciê zapiszê
TTITLE2=Boogie Boys - BB Are In Town
TTITLE3=Marek "Makaron" Trio - Skarga umieraj¹cego
TTITLE4=Siódma W Nocy - Hangover Blues
TTITLE5=Szulerzy - Wyscig szczurów, ¿ycie mija
TTITLE6=Anna Heron - Bywa ró¿nie
TTITLE7=Outsider Blues - Pragnienie
TTITLE8=Karolina Cygonek and ToMi Blues Kapela - ¯onatym mordercom
TTITLE9=The Moongang - Bridge With The Blues
TTITLE10=Devil Blues - Come Fly With Me
TTITLE11=Blue Sounds - Ocalony
TTITLE12=Maciej D³u¿niewski and Zderzenie - Ró¿owy blues
TTITLE13=Limbo - Piosenka po¿egnalna
TTITLE14=HooDoo Band - I Can't Stand It
TTITLE15=Jolanta Litwin-Sarzyñska - Ball And Chain
TTITLE16=Jerry's Hole Band - Akurat w momencie gdy lato blednie
TTITLE17=J.J. Band i Darek £ach - Ona posz³a inn¹ drog¹
TTITLE18=Highway - Taki dzieñ
EXTD=
EXTT0=
EXTT1=
EXTT2=
EXTT3=
EXTT4=
EXTT5=
EXTT6=
EXTT7=
EXTT8=
EXTT9=
EXTT10=
EXTT11=
EXTT12=
EXTT13=
EXTT14=
EXTT15=
EXTT16=
EXTT17=
EXTT18=
PLAYORDER=
